<?xml version="1.0" encoding="UTF-8"?>
<svg id="Calque_1" xmlns="http://www.w3.org/2000/svg" xmlns:xlink="http://www.w3.org/1999/xlink" version="1.1" viewBox="0 0 1280 800">
  <!-- Generator: Adobe Illustrator 29.3.1, SVG Export Plug-In . SVG Version: 2.1.0 Build 151)  -->
  <defs>
    <style>
      .st0 {
        fill: #9b5de5;
      }

      .st1 {
        fill: #fee440;
      }

      .st2 {
        fill: #00f5d4;
      }

      .st3 {
        fill: #3b423f;
      }

      .st4 {
        fill: #f15bb5;
      }

      .st5 {
        fill: url(#Dégradé_sans_nom_31);
      }

      .st6 {
        fill: #00bbf9;
      }
    </style>
    <linearGradient id="Dégradé_sans_nom_31" data-name="Dégradé sans nom 31" x1="528.86" y1="422.88" x2="775.41" y2="422.88" gradientTransform="translate(1.69 -2.59) rotate(.23)" gradientUnits="userSpaceOnUse">
      <stop offset="0" stop-color="#f15bb5"/>
      <stop offset=".25" stop-color="#9b5de5"/>
      <stop offset=".48" stop-color="#00bbf9"/>
      <stop offset=".54" stop-color="#00d2ea"/>
      <stop offset=".62" stop-color="#00ebd9"/>
      <stop offset=".66" stop-color="#00f5d4"/>
      <stop offset=".85" stop-color="#fee440"/>
    </linearGradient>
  </defs>
  <path class="st0" d="M256.33,379.9c-13.59,0-26.2-2.37-37.81-7.1-11.62-4.73-21.77-11.4-30.46-20-8.69-8.6-15.45-18.62-20.26-30.07-4.82-11.44-7.23-23.78-7.23-37.04s2.41-25.59,7.23-37.04c4.82-11.44,11.57-21.38,20.26-29.81,8.69-8.43,18.8-15.01,30.33-19.75,11.52-4.73,24.17-7.1,37.94-7.1,14.45,0,27.32,2.32,38.59,6.97,11.27,4.65,21.12,11.01,29.55,19.1l-27.36,27.61c-4.64-5.16-10.37-9.2-17.16-12.13-6.8-2.92-14.67-4.39-23.62-4.39-7.92,0-15.14,1.33-21.68,4-6.54,2.67-12.22,6.5-17.03,11.48-4.82,4.99-8.52,11.01-11.1,18.07-2.58,7.06-3.87,14.71-3.87,22.97s1.29,16.39,3.87,23.36c2.58,6.97,6.28,12.99,11.1,18.07,4.82,5.08,10.49,8.95,17.03,11.62,6.54,2.67,13.76,4,21.68,4,9.29,0,17.38-1.42,24.26-4.26,6.88-2.84,12.73-6.93,17.55-12.26l27.62,27.62c-8.61,8.26-18.58,14.67-29.94,19.23-11.36,4.56-24.52,6.84-39.49,6.84Z"/>
  <path class="st4" d="M454.29,380.16c-13.77,0-26.5-2.41-38.2-7.23-11.7-4.82-21.94-11.53-30.71-20.13-8.77-8.6-15.57-18.62-20.39-30.07-4.82-11.44-7.23-23.78-7.23-37.04s2.41-25.81,7.23-37.16c4.82-11.36,11.53-21.29,20.13-29.81,8.6-8.52,18.75-15.14,30.46-19.87,11.7-4.73,24.43-7.1,38.2-7.1s26.19,2.37,37.81,7.1c11.62,4.73,21.81,11.36,30.58,19.87,8.77,8.52,15.53,18.5,20.26,29.94,4.73,11.44,7.1,23.87,7.1,37.3s-2.41,25.6-7.23,37.04c-4.82,11.44-11.53,21.42-20.13,29.94-8.61,8.52-18.67,15.19-30.2,20-11.53,4.82-24.09,7.23-37.68,7.23ZM453.78,342.99c10.84,0,20.3-2.41,28.39-7.23,8.09-4.82,14.41-11.53,18.97-20.13,4.56-8.6,6.84-18.58,6.84-29.94,0-8.43-1.29-16.13-3.87-23.1s-6.28-12.99-11.1-18.07c-4.82-5.07-10.58-8.95-17.29-11.62-6.71-2.66-14.03-4-21.94-4-10.84,0-20.35,2.37-28.52,7.1-8.18,4.73-14.5,11.36-18.97,19.87-4.48,8.52-6.71,18.45-6.71,29.81,0,8.61,1.29,16.44,3.87,23.49,2.58,7.06,6.28,13.12,11.1,18.19,4.82,5.08,10.54,8.95,17.17,11.62,6.62,2.67,13.98,4,22.07,4Z"/>
  <path class="st1" d="M589.06,377.06v-182.22h40.78v182.22h-40.78ZM620.55,377.06v-35.62h90.08v35.62h-90.08Z"/>
  <path class="st6" d="M830.38,380.16c-13.77,0-26.5-2.41-38.2-7.23-11.7-4.82-21.94-11.53-30.71-20.13-8.77-8.6-15.57-18.62-20.39-30.07-4.82-11.44-7.23-23.78-7.23-37.04s2.41-25.81,7.23-37.16c4.82-11.36,11.53-21.29,20.13-29.81,8.6-8.52,18.75-15.14,30.46-19.87,11.7-4.73,24.43-7.1,38.2-7.1s26.19,2.37,37.81,7.1c11.62,4.73,21.81,11.36,30.58,19.87,8.77,8.52,15.53,18.5,20.26,29.94,4.73,11.44,7.1,23.87,7.1,37.3s-2.41,25.6-7.23,37.04c-4.82,11.44-11.53,21.42-20.13,29.94-8.61,8.52-18.67,15.19-30.2,20-11.53,4.82-24.09,7.23-37.68,7.23ZM829.87,342.99c10.84,0,20.3-2.41,28.39-7.23,8.09-4.82,14.41-11.53,18.97-20.13,4.56-8.6,6.84-18.58,6.84-29.94,0-8.43-1.29-16.13-3.87-23.1-2.58-6.97-6.28-12.99-11.1-18.07-4.82-5.07-10.58-8.95-17.29-11.62-6.71-2.66-14.03-4-21.94-4-10.84,0-20.35,2.37-28.52,7.1-8.18,4.73-14.5,11.36-18.97,19.87-4.48,8.52-6.71,18.45-6.71,29.81,0,8.61,1.29,16.44,3.87,23.49,2.58,7.06,6.28,13.12,11.1,18.19,4.82,5.08,10.54,8.95,17.17,11.62,6.62,2.67,13.98,4,22.07,4Z"/>
  <path class="st3" d="M970.53,377.06v-182.22h40.78v182.22h-40.78ZM1001.76,302.21v-30.46h38.46c7.91,0,14.11-2.02,18.58-6.06,4.47-4.04,6.71-9.51,6.71-16.39s-2.19-11.96-6.58-16.26c-4.39-4.3-10.54-6.45-18.45-6.45h-38.72v-31.75h43.36c12.22,0,22.88,2.28,32,6.84,9.12,4.56,16.22,10.89,21.29,18.97,5.07,8.09,7.61,17.29,7.61,27.61,0,11.01-2.58,20.52-7.74,28.52-5.16,8-12.39,14.24-21.68,18.71-9.29,4.48-20.22,6.71-32.78,6.71h-42.07ZM1069.64,377.06l-56.78-78.46,37.42-10.33,67.62,88.79h-48.26Z"/>
  <path class="st3" d="M164.49,604.34v-153.44h34.34v153.44h-34.34Z"/>
  <path class="st3" d="M234.15,484.81v-29.99h130.4v29.99h-130.4ZM282.18,608.25v-151.48h34.56v151.48h-34.56Z"/>
  <path class="st3" d="M459.14,604.34v-153.44h34.34v153.44h-34.34ZM482.61,604.34v-29.99h37.82c9.27,0,17.35-1.88,24.23-5.65,6.88-3.77,12.2-9.16,15.97-16.19,3.77-7.03,5.65-15.39,5.65-25.1s-1.92-17.85-5.76-24.88c-3.84-7.03-9.2-12.39-16.08-16.08-6.88-3.69-14.89-5.54-24.02-5.54h-38.9v-29.99h39.34c11.59,0,22.28,1.85,32.06,5.54,9.78,3.69,18.33,8.98,25.64,15.86,7.32,6.88,13,14.96,17.06,24.23,4.05,9.27,6.09,19.63,6.09,31.08s-2.03,21.41-6.09,30.75c-4.06,9.35-9.71,17.46-16.95,24.34-7.25,6.88-15.76,12.21-25.54,15.98-9.78,3.77-20.39,5.65-31.84,5.65h-38.69Z"/>
  <path class="st3" d="M611.88,604.34l60.63-153.44h31.08l60.2,153.44h-36.3l-45.86-127.14h12.61l-46.94,127.14h-35.42ZM646.65,576.74v-27.82h83.46v27.82h-83.46Z"/>
  <path class="st3" d="M797.91,604.34v-153.44h34.34v153.44h-34.34Z"/>
  <path class="st3" d="M877.89,604.34v-153.44h34.34v153.44h-34.34ZM904.41,604.34v-29.99h75.85v29.99h-75.85Z"/>
  <path class="st3" d="M1034.88,547.4l-59.12-96.5h39.55l45.42,77.81h-25.65l45.42-77.81h38.9l-59.55,96.5h-24.99ZM1030.53,604.34v-72.81h34.56v72.81h-34.56Z"/>
  <path class="st3" d="M204.29,301.13c-1.05-4.83-1.64-9.95-1.64-15.44,0-8.26,1.29-15.91,3.87-22.97,2.58-7.05,6.28-13.07,11.1-18.07,4.82-4.99,10.49-8.82,17.03-11.48,6.54-2.67,13.76-4,21.68-4,8.95,0,16.82,1.46,23.62,4.39,6.79,2.93,12.52,6.97,17.16,12.13l27.36-27.61c-8.43-8.09-18.28-14.45-29.55-19.1-11.27-4.64-24.13-6.97-38.59-6.97s-26.42,2.37-37.94,7.1c-11.53,4.74-21.64,11.32-30.33,19.75-8.69,8.43-15.45,18.37-20.26,29.81-4.82,11.44-7.23,23.79-7.23,37.04,0,5.31.49,10.43,1.27,15.44h42.44Z"/>
  <path class="st3" d="M970.53,377.06v-182.22h40.78v182.22h-40.78ZM1001.76,302.21v-30.46h38.46c7.91,0,14.11-2.02,18.58-6.06,4.47-4.04,6.71-9.51,6.71-16.39s-2.19-11.96-6.58-16.26c-4.39-4.3-10.54-6.45-18.45-6.45h-38.72v-31.75h43.36c12.22,0,22.88,2.28,32,6.84,9.12,4.56,16.22,10.89,21.29,18.97,5.07,8.09,7.61,17.29,7.61,27.61,0,11.01-2.58,20.52-7.74,28.52-5.16,8-12.39,14.24-21.68,18.71-9.29,4.48-20.22,6.71-32.78,6.71h-42.07ZM1069.64,377.06l-56.78-78.46,37.42-10.33,67.62,88.79h-48.26Z"/>
  <path class="st3" d="M401.2,301.13c-1.04-4.84-1.62-9.97-1.62-15.44,0-11.36,2.23-21.29,6.71-29.81,4.47-8.52,10.79-15.14,18.97-19.87,8.17-4.73,17.68-7.1,28.52-7.1,7.91,0,15.23,1.33,21.94,4,6.71,2.67,12.47,6.54,17.29,11.62,4.82,5.08,8.52,11.1,11.1,18.07s3.87,14.67,3.87,23.1c0,5.47-.56,10.61-1.62,15.44h41.94c.75-4.93,1.23-9.97,1.23-15.18,0-13.42-2.37-25.85-7.1-37.3-4.73-11.44-11.49-21.42-20.26-29.94-8.77-8.52-18.97-15.14-30.58-19.87-11.62-4.73-24.22-7.1-37.81-7.1s-26.5,2.37-38.2,7.1c-11.7,4.73-21.85,11.36-30.46,19.87-8.61,8.52-15.32,18.45-20.13,29.81-4.82,11.36-7.23,23.74-7.23,37.16,0,5.31.49,10.43,1.27,15.44h42.17Z"/>
  <path class="st3" d="M970.53,377.06v-182.22h40.78v182.22h-40.78ZM1001.76,302.21v-30.46h38.46c7.91,0,14.11-2.02,18.58-6.06,4.47-4.04,6.71-9.51,6.71-16.39s-2.19-11.96-6.58-16.26c-4.39-4.3-10.54-6.45-18.45-6.45h-38.72v-31.75h43.36c12.22,0,22.88,2.28,32,6.84,9.12,4.56,16.22,10.89,21.29,18.97,5.07,8.09,7.61,17.29,7.61,27.61,0,11.01-2.58,20.52-7.74,28.52-5.16,8-12.39,14.24-21.68,18.71-9.29,4.48-20.22,6.71-32.78,6.71h-42.07ZM1069.64,377.06l-56.78-78.46,37.42-10.33,67.62,88.79h-48.26Z"/>
  <rect class="st3" x="589.06" y="194.84" width="40.78" height="106.29"/>
  <path class="st2" d="M970.53,377.06v-182.22h40.78v182.22h-40.78ZM1001.76,302.21v-30.46h38.46c7.91,0,14.11-2.02,18.58-6.06,4.47-4.04,6.71-9.51,6.71-16.39s-2.19-11.96-6.58-16.26c-4.39-4.3-10.54-6.45-18.45-6.45h-38.72v-31.75h43.36c12.22,0,22.88,2.28,32,6.84,9.12,4.56,16.22,10.89,21.29,18.97,5.07,8.09,7.61,17.29,7.61,27.61,0,11.01-2.58,20.52-7.74,28.52-5.16,8-12.39,14.24-21.68,18.71-9.29,4.48-20.22,6.71-32.78,6.71h-42.07ZM1069.64,377.06l-56.78-78.46,37.42-10.33,67.62,88.79h-48.26Z"/>
  <path class="st3" d="M777.29,301.13c-1.04-4.84-1.62-9.97-1.62-15.44,0-11.36,2.23-21.29,6.71-29.81,4.47-8.52,10.79-15.14,18.97-19.87,8.17-4.73,17.68-7.1,28.52-7.1,7.91,0,15.23,1.33,21.94,4,6.71,2.67,12.47,6.54,17.29,11.62,4.82,5.08,8.52,11.1,11.1,18.07,2.58,6.97,3.87,14.67,3.87,23.1,0,5.47-.56,10.61-1.62,15.44h41.94c.75-4.93,1.23-9.97,1.23-15.18,0-13.42-2.37-25.85-7.1-37.3-4.73-11.44-11.49-21.42-20.26-29.94-8.77-8.52-18.97-15.14-30.58-19.87-11.62-4.73-24.22-7.1-37.81-7.1s-26.5,2.37-38.2,7.1c-11.7,4.73-21.85,11.36-30.46,19.87-8.61,8.52-15.32,18.45-20.13,29.81-4.82,11.36-7.23,23.74-7.23,37.16,0,5.31.49,10.43,1.27,15.44h42.17Z"/>
  <path class="st3" d="M1060.07,301.13l-.27-.36c6.08-1.11,11.71-2.82,16.8-5.28,9.29-4.47,16.52-10.71,21.68-18.71,5.16-8,7.74-17.51,7.74-28.52,0-10.32-2.54-19.53-7.61-27.61-5.08-8.09-12.17-14.41-21.29-18.97-9.12-4.56-19.79-6.84-32-6.84h-74.59v106.29h89.55ZM1040.47,226.59c7.91,0,14.06,2.15,18.45,6.45,4.39,4.3,6.58,9.72,6.58,16.26,0,6.88-2.24,12.35-6.71,16.39-4.48,4.04-10.67,6.06-18.58,6.06h-28.91v-45.17h29.17Z"/>
  <path class="st5" d="M660.92,462.42c-26.64-.11-48.37-5.55-75.01-18.78-37.37-18.56-51.85-35.94-51.99-36.12h0s-4.9-4.52-4.98-10.39c-.04-3.22,1.37-6.25,4.2-9,3.53-3.44,7.18-5.17,10.86-5.16,3.93.02,6.51,2.07,6.8,2.3,9.56,8.46,34.58,29.12,61.39,39.2,16.08,6.04,35.72,9.55,53.9,9.62,18.49.07,34.31-3.26,45.77-9.63,22.4-12.46,30.95-20.33,36.6-25.54.74-.68,1.4-1.29,2.03-1.85,2.54-2.26,5.85-3.5,9.35-3.49,4.67.02,9.09,2.27,12.46,6.33,6.62,7.99,2.09,15.42-6.76,24.12-22.02,21.66-48.02,34.09-77.27,36.94-10.18.99-19.12,1.46-27.34,1.43Z"/>
</svg>